<svg xmlns="http://www.w3.org/2000/svg" viewBox="0 0 180 180"><defs><style>.cls-1{fill:#ede5da;}.cls-2{fill:#38635a;}.cls-3{fill:#3ea949;}.cls-4{fill:#64a1c6;}.cls-5{fill:#6dc4bc;}</style></defs><title>Headset_2</title><g id="BG"><circle class="cls-1" cx="90" cy="90" r="90"/></g><g id="Icons"><path class="cls-2" d="M130,98h-4V79a36,36,0,0,0-72,0V98H50V79a40,40,0,0,1,80,0Z"/><path class="cls-2" d="M108,136h-4v-4h4a18,18,0,0,0,18-18V97h4v17A22,22,0,0,1,108,136Z"/><rect class="cls-3" x="94" y="129" width="18" height="10" rx="5"/><path class="cls-4" d="M55.87,81H58a0,0,0,0,1,0,0v32a0,0,0,0,1,0,0H55.87A15.87,15.87,0,0,1,40,97.13v-.25A15.87,15.87,0,0,1,55.87,81Z"/><path class="cls-4" d="M122,81h2.25A15.87,15.87,0,0,1,140,97h0a15.87,15.87,0,0,1-15.75,16H122Z"/><rect class="cls-5" x="58" y="81" width="6" height="32"/><rect class="cls-5" x="116" y="81" width="6" height="32"/></g></svg>