<svg id="Layer_1" data-name="Layer 1" xmlns="http://www.w3.org/2000/svg" xmlns:xlink="http://www.w3.org/1999/xlink" viewBox="0 0 180 180"><defs><style>.cls-1,.cls-9{isolation:isolate;}.cls-2{clip-path:url(#clip-path);}.cls-3{fill:none;}.cls-4{fill:#fff;}.cls-11,.cls-12,.cls-13,.cls-15,.cls-17,.cls-23,.cls-4,.cls-8{fill-rule:evenodd;}.cls-5{clip-path:url(#clip-path-2);}.cls-6{clip-path:url(#clip-path-3);}.cls-7{fill:#ede5da;}.cls-8{fill:#64a1c6;}.cls-9{opacity:0.3;}.cls-10{clip-path:url(#clip-path-7);}.cls-11{fill:#183028;}.cls-12{fill:#6bc0b8;}.cls-13{fill:#40a848;}.cls-14{clip-path:url(#clip-path-8);}.cls-15{fill:#38635a;}.cls-16{clip-path:url(#clip-path-9);}.cls-17{fill:#6dc4bc;}.cls-18{mask:url(#mask);}.cls-19{clip-path:url(#clip-path-10);}.cls-20{fill:#38645b;}.cls-21{mask:url(#mask-2);}.cls-22{clip-path:url(#clip-path-11);}.cls-23{fill:#fbe89a;}</style><clipPath id="clip-path"><rect class="cls-3" x="101.84" y="86.93" width="19.21" height="16.21"/></clipPath><clipPath id="clip-path-2"><rect class="cls-3" x="101.84" y="86.93" width="19.21" height="16.21"/></clipPath><clipPath id="clip-path-3"><rect class="cls-3" width="180" height="180"/></clipPath><clipPath id="clip-path-7"><rect class="cls-3" x="75.7" y="114" width="18.6" height="4"/></clipPath><clipPath id="clip-path-8"><rect class="cls-3" x="47" y="89" width="20" height="25"/></clipPath><clipPath id="clip-path-9"><rect class="cls-3" x="100" y="76" width="30" height="37.78"/></clipPath><mask id="mask" x="101.84" y="86.93" width="30.16" height="27.21" maskUnits="userSpaceOnUse"><rect x="101.84" y="86.93" width="19.21" height="16.21"/><g class="cls-1"><g class="cls-2"><path class="cls-4" d="M110,103.14a11,11,0,1,0,11-11,11,11,0,0,0-11,11"/></g></g></mask><clipPath id="clip-path-10"><rect class="cls-3" x="101.84" y="86.93" width="19.21" height="16.21"/></clipPath><mask id="mask-2" x="101.84" y="86.93" width="30.16" height="27.21" maskUnits="userSpaceOnUse"><rect x="101.84" y="86.93" width="19.21" height="16.21"/><g class="cls-1"><g class="cls-5"><path class="cls-4" d="M110,103.14a11,11,0,1,0,11-11,11,11,0,0,0-11,11"/></g></g></mask><clipPath id="clip-path-11"><rect class="cls-3" x="101.84" y="86.93" width="19.21" height="16.21"/></clipPath></defs><title>Three devices_off white</title><g class="cls-6"><g class="cls-6"><g class="cls-6"><path class="cls-7" d="M180,90A90,90,0,1,1,90,0a90,90,0,0,1,90,90"/></g><g class="cls-6"><path class="cls-8" d="M125.9,114H44.1a4.1,4.1,0,0,1-4.1-4.1V54.1A4.11,4.11,0,0,1,44.1,50h81.8a4.1,4.1,0,0,1,4.1,4.1v55.8a4.09,4.09,0,0,1-4.1,4.1"/><path class="cls-4" d="M79.13,54H125a1,1,0,0,1,1,1v50a1,1,0,0,1-1,1H45a1,1,0,0,1-1-1V55a1,1,0,0,1,1-1H79.13"/><polygon class="cls-8" points="97 130 73 130 76.6 114 93.4 114 97 130"/><g class="cls-9"><g class="cls-10"><polygon class="cls-11" points="94.3 118 93.4 114 76.6 114 75.7 118 94.3 118"/></g></g><path class="cls-8" d="M113.58,101.26h-16v-34a2,2,0,0,1,2-2h12a2,2,0,0,1,2,2Z"/><path class="cls-12" d="M93.58,101.26h-16v-27a2,2,0,0,1,2-2h12a2,2,0,0,1,2,2Z"/><path class="cls-13" d="M73.58,101.26h-16v-18a2,2,0,0,1,2-2h12a2,2,0,0,1,2,2Z"/><g class="cls-9"><g class="cls-14"><path class="cls-11" d="M64,89H50a3,3,0,0,0-3,3v22H67V92a3,3,0,0,0-3-3"/></g></g><path class="cls-15" d="M65,90H51a3,3,0,0,0-3,3v34a3,3,0,0,0,3,3H65a3,3,0,0,0,3-3V93a3,3,0,0,0-3-3"/><path class="cls-4" d="M65.18,93.64H50.82a1,1,0,0,0-1,1v27.09a1,1,0,0,0,1,1H65.18a1,1,0,0,0,1-1V94.64a1,1,0,0,0-1-1"/><g class="cls-9"><g class="cls-16"><path class="cls-11" d="M103,76a3,3,0,0,0-3,3v34.78h25.9a4.11,4.11,0,0,0,4.1-4.1V76Z"/></g></g><path class="cls-15" d="M137,77.22H105a3,3,0,0,0-3,3V127a3,3,0,0,0,3,3h32a3,3,0,0,0,3-3V80.22a3,3,0,0,0-3-3"/><path class="cls-4" d="M136.62,81.44H105.38a1,1,0,0,0-1,1v42.34a1,1,0,0,0,1,1h31.24a1,1,0,0,0,1-1V82.44a1,1,0,0,0-1-1"/><path class="cls-17" d="M132,103.14a11,11,0,1,1-11-11,11,11,0,0,1,11,11"/><g class="cls-18"><g class="cls-19"><rect class="cls-20" x="101.84" y="86.93" width="19.21" height="16.21"/></g></g><g class="cls-21"><g class="cls-22"><polygon class="cls-23" points="101.84 86.94 101.84 103.14 121.05 103.14 110.34 92.43 101.84 86.94"/></g></g></g></g></g></svg>