<svg xmlns="http://www.w3.org/2000/svg" viewBox="0 0 180 180"><defs><style>.cls-1{fill:#ede5da;}.cls-2{fill:#6dc4bc;}.cls-3{fill:#40a829;}.cls-4{opacity:0.3;}.cls-5{fill:#183028;}.cls-6{fill:#64a1c6;}</style></defs><title>GraduationHat_2</title><g id="BG"><circle class="cls-1" cx="90" cy="90" r="90"/></g><g id="Icons"><path class="cls-2" d="M115,76.57H65L55,97.22a2,2,0,0,0,1.26,1.86L90,112.57l33.74-13.49A2,2,0,0,0,125,97.22Z"/><rect class="cls-3" x="131" y="70" width="2" height="50"/><circle class="cls-3" cx="131.98" cy="115" r="5"/><g class="cls-4"><polygon class="cls-5" points="131 78.34 133 77.54 133 70 131 70 131 78.34"/></g><path class="cls-6" d="M89.2,50.15,41.35,69.3a2.14,2.14,0,0,0,0,4L89.2,92.42a2.11,2.11,0,0,0,1.6,0l47.85-19.14a2.14,2.14,0,0,0,0-4L90.8,50.15A2.21,2.21,0,0,0,89.2,50.15Z"/><path class="cls-3" d="M132,120h0a5,5,0,0,1,5,5v15a0,0,0,0,1,0,0H127a0,0,0,0,1,0,0V125A5,5,0,0,1,132,120Z"/><g class="cls-4"><polygon class="cls-5" points="59.56 87.81 86.01 91.14 62.5 81.74 59.56 87.81"/></g></g></svg>