<svg xmlns="http://www.w3.org/2000/svg" viewBox="0 0 180 180"><defs><style>.cls-1{fill:#ede5da;}.cls-2{fill:#64a1c6;}.cls-3{fill:#183028;opacity:0.3;}.cls-4{fill:#40a829;}.cls-5{fill:#fff;}.cls-6{fill:#38635a;}</style></defs><title>TDA</title><g id="BG"><circle class="cls-1" cx="90" cy="90" r="90"/></g><g id="Icons"><path class="cls-2" d="M46.58,125.77,73.35,99,81,106.65,54.23,133.42a5.41,5.41,0,1,1-7.65-7.65Z"/><rect class="cls-3" x="68.61" y="102.55" width="6.77" height="10.9" transform="translate(-55.28 82.53) rotate(-44.99)"/><circle class="cls-4" cx="99" cy="81" r="36" transform="translate(-13.92 20.91) rotate(-11.27)"/><circle class="cls-5" cx="99" cy="81" r="30.5" transform="translate(-18.51 131.54) rotate(-62.56)"/><path class="cls-6" d="M81.28,99a1.12,1.12,0,0,1-.79-.33,25.59,25.59,0,0,1,36.18-36.19,1.11,1.11,0,0,1-1.57,1.58,23.36,23.36,0,1,0-33,33,1.12,1.12,0,0,1-.79,1.9Z"/></g></svg>