<svg id="Layer_1" data-name="Layer 1" xmlns="http://www.w3.org/2000/svg" xmlns:xlink="http://www.w3.org/1999/xlink" viewBox="0 0 180 180"><defs><style>.cls-1{fill:none;}.cls-2{clip-path:url(#clip-path);}.cls-3{fill:#ede5da;}.cls-4{fill:#40a829;}.cls-5{fill:#fff;}.cls-6{fill:#38635a;}.cls-7{fill:#64a1c6;}.cls-8{fill:#fbe89a;}</style><clipPath id="clip-path"><rect class="cls-1" width="180" height="180"/></clipPath></defs><title>Ribbon_off white</title><g class="cls-2"><g class="cls-2"><path class="cls-3" d="M180,90A90,90,0,1,1,90,0a90,90,0,0,1,90,90"/></g><polygon class="cls-4" points="130 131.3 116.29 125.56 111.87 139.75 89.9 92.62 108.02 84.17 130 131.3"/><polygon class="cls-5" points="116.29 125.56 130 131.3 108.02 84.17 98.96 88.4 116.29 125.56"/><polygon class="cls-4" points="50 131.3 63.71 125.56 68.13 139.75 90.1 92.62 71.98 84.17 50 131.3"/><polygon class="cls-5" points="63.71 125.56 50 131.3 71.98 84.17 81.04 88.4 63.71 125.56"/><g class="cls-2"><path class="cls-6" d="M116.5,66.25A26.5,26.5,0,1,1,90,39.75a26.49,26.49,0,0,1,26.5,26.5"/><path class="cls-7" d="M111,66.25a21,21,0,1,1-21-21,21,21,0,0,1,21,21"/><polygon class="cls-8" points="90 53.66 93.71 61.13 102 62.32 96 68.14 97.42 76.34 90 72.47 82.58 76.34 84 68.14 78 62.32 86.29 61.13 90 53.66"/></g></g></svg>