<svg xmlns="http://www.w3.org/2000/svg" viewBox="0 0 180 180"><defs><style>.cls-1{fill:#ede5da;}.cls-2{fill:#40a848;}.cls-3{fill:#38635a;}.cls-4{fill:#fff;}.cls-5{opacity:0.3;}.cls-6{fill:#183028;fill-rule:evenodd;}.cls-7{fill:#6dc4bc;}.cls-8{fill:#64a1c6;}.cls-9{fill:#fbe89a;}</style></defs><title>Shopping_2</title><g id="BG"><circle class="cls-1" cx="90" cy="90" r="90"/></g><g id="Icons"><rect class="cls-2" x="45" y="51.5" width="60" height="10"/><path class="cls-3" d="M91.5,83h-33V56.5a16.5,16.5,0,0,1,33,0Zm-30-3h27V56.5a13.5,13.5,0,0,0-27,0Z"/><rect class="cls-4" x="40" y="61.5" width="70" height="50"/><g class="cls-5"><polygon class="cls-6" points="110 110 110 82 73 82 73 92 68 92 68 110 110 110"/></g><rect class="cls-7" x="75" y="80" width="60" height="10"/><path class="cls-3" d="M121.5,111.5h-33V85a16.5,16.5,0,0,1,33,0Zm-30-3h27V85a13.5,13.5,0,0,0-27,0Z"/><rect class="cls-8" x="70" y="90" width="70" height="50"/><rect class="cls-9" x="70" y="125" width="70" height="4"/></g></svg>