<svg id="Layer_1" data-name="Layer 1" xmlns="http://www.w3.org/2000/svg" xmlns:xlink="http://www.w3.org/1999/xlink" viewBox="0 0 180 180"><defs><style>.cls-1{fill:none;}.cls-2{clip-path:url(#clip-path);}.cls-3{fill:#ede5da;}.cls-4{fill:#64a1c6;}.cls-5{fill:#fff;}.cls-6{fill:#38635a;fill-rule:evenodd;}</style><clipPath id="clip-path"><rect class="cls-1" width="180" height="180"/></clipPath></defs><title>Tag with price_off white</title><g class="cls-2"><g class="cls-2"><path class="cls-3" d="M180,90A90,90,0,1,1,90,0a90,90,0,0,1,90,90"/></g><g class="cls-2"><path class="cls-4" d="M97.09,46.32,46.32,97.09a4.5,4.5,0,0,0,0,6.37l30.22,30.22a4.5,4.5,0,0,0,6.37,0l50.77-50.77A4.49,4.49,0,0,0,135,79.73V54a9,9,0,0,0-9-9H100.28a4.54,4.54,0,0,0-3.19,1.32m21.22,24.93a8.62,8.62,0,1,1,6.77-6.77,8.63,8.63,0,0,1-6.77,6.77"/><path class="cls-5" d="M122.17,88.5,80.5,130.17a1.12,1.12,0,0,1-1.59,0L49.83,101.09a1.13,1.13,0,0,1,0-1.6L91.49,57.83a1.13,1.13,0,0,1,1.6,0l29.08,29.08a1.12,1.12,0,0,1,0,1.59"/><path class="cls-6" d="M87.85,91.43v-7a10.64,10.64,0,0,1,4.71,2.23l2-3.23a12.18,12.18,0,0,0-6.71-2.86V77h-3v3.6c-4.48.55-7.16,3.55-7.16,7,0,3.64,1.75,6.11,7.16,7.84v7.37A12.38,12.38,0,0,1,79,100.23l-2,3.27a13.68,13.68,0,0,0,7.85,3.14V111h3v-4.46c4.43-.69,7.15-3.66,7.15-7.36s-2-6-7.15-7.75m-3-.79c-2.33-1-2.87-1.91-2.87-3.24s1-2.54,2.87-3Zm3,12V96.23c2.33,1,2.86,1.9,2.86,3.25s-1,2.65-2.86,3.14"/></g></g></svg>